%TF.GenerationSoftware,KiCad,Pcbnew,9.0.2*%
%TF.CreationDate,2025-05-26T22:57:50-04:00*%
%TF.ProjectId,ArduinoMega_Ethernet,41726475-696e-46f4-9d65-67615f457468,rev?*%
%TF.SameCoordinates,Original*%
%TF.FileFunction,Soldermask,Top*%
%TF.FilePolarity,Negative*%
%FSLAX46Y46*%
G04 Gerber Fmt 4.6, Leading zero omitted, Abs format (unit mm)*
G04 Created by KiCad (PCBNEW 9.0.2) date 2025-05-26 22:57:50*
%MOMM*%
%LPD*%
G01*
G04 APERTURE LIST*
G04 Aperture macros list*
%AMRoundRect*
0 Rectangle with rounded corners*
0 $1 Rounding radius*
0 $2 $3 $4 $5 $6 $7 $8 $9 X,Y pos of 4 corners*
0 Add a 4 corners polygon primitive as box body*
4,1,4,$2,$3,$4,$5,$6,$7,$8,$9,$2,$3,0*
0 Add four circle primitives for the rounded corners*
1,1,$1+$1,$2,$3*
1,1,$1+$1,$4,$5*
1,1,$1+$1,$6,$7*
1,1,$1+$1,$8,$9*
0 Add four rect primitives between the rounded corners*
20,1,$1+$1,$2,$3,$4,$5,0*
20,1,$1+$1,$4,$5,$6,$7,0*
20,1,$1+$1,$6,$7,$8,$9,0*
20,1,$1+$1,$8,$9,$2,$3,0*%
%AMFreePoly0*
4,1,19,0.079643,0.182453,0.084467,0.178033,0.290533,-0.028033,0.312215,-0.074529,0.312500,-0.081066,0.312500,-0.125000,0.294953,-0.173209,0.250524,-0.198861,0.237500,-0.200000,-0.237500,-0.200000,-0.285709,-0.182453,-0.311361,-0.138024,-0.312500,-0.125000,-0.312500,0.125000,-0.294953,0.173209,-0.250524,0.198861,-0.237500,0.200000,0.031434,0.200000,0.079643,0.182453,0.079643,0.182453,
$1*%
%AMFreePoly1*
4,1,19,0.285709,0.182453,0.311361,0.138024,0.312500,0.125000,0.312500,0.081066,0.294953,0.032857,0.290533,0.028033,0.084467,-0.178033,0.037971,-0.199715,0.031434,-0.200000,-0.237500,-0.200000,-0.285709,-0.182453,-0.311361,-0.138024,-0.312500,-0.125000,-0.312500,0.125000,-0.294953,0.173209,-0.250524,0.198861,-0.237500,0.200000,0.237500,0.200000,0.285709,0.182453,0.285709,0.182453,
$1*%
%AMFreePoly2*
4,1,19,0.173209,0.294953,0.198861,0.250524,0.200000,0.237500,0.200000,-0.237500,0.182453,-0.285709,0.138024,-0.311361,0.125000,-0.312500,-0.125000,-0.312500,-0.173209,-0.294953,-0.198861,-0.250524,-0.200000,-0.237500,-0.200000,0.031434,-0.182453,0.079643,-0.178033,0.084467,0.028033,0.290533,0.074529,0.312215,0.081066,0.312500,0.125000,0.312500,0.173209,0.294953,0.173209,0.294953,
$1*%
%AMFreePoly3*
4,1,19,-0.032857,0.294953,-0.028033,0.290533,0.178033,0.084467,0.199715,0.037971,0.200000,0.031434,0.200000,-0.237500,0.182453,-0.285709,0.138024,-0.311361,0.125000,-0.312500,-0.125000,-0.312500,-0.173209,-0.294953,-0.198861,-0.250524,-0.200000,-0.237500,-0.200000,0.237500,-0.182453,0.285709,-0.138024,0.311361,-0.125000,0.312500,-0.081066,0.312500,-0.032857,0.294953,-0.032857,0.294953,
$1*%
%AMFreePoly4*
4,1,19,0.285709,0.182453,0.311361,0.138024,0.312500,0.125000,0.312500,-0.125000,0.294953,-0.173209,0.250524,-0.198861,0.237500,-0.200000,-0.031434,-0.200000,-0.079643,-0.182453,-0.084467,-0.178033,-0.290533,0.028033,-0.312215,0.074529,-0.312500,0.081066,-0.312500,0.125000,-0.294953,0.173209,-0.250524,0.198861,-0.237500,0.200000,0.237500,0.200000,0.285709,0.182453,0.285709,0.182453,
$1*%
%AMFreePoly5*
4,1,19,0.285709,0.182453,0.311361,0.138024,0.312500,0.125000,0.312500,-0.125000,0.294953,-0.173209,0.250524,-0.198861,0.237500,-0.200000,-0.237500,-0.200000,-0.285709,-0.182453,-0.311361,-0.138024,-0.312500,-0.125000,-0.312500,-0.081066,-0.294953,-0.032857,-0.290533,-0.028033,-0.084467,0.178033,-0.037971,0.199715,-0.031434,0.200000,0.237500,0.200000,0.285709,0.182453,0.285709,0.182453,
$1*%
%AMFreePoly6*
4,1,19,0.173209,0.294953,0.198861,0.250524,0.200000,0.237500,0.200000,-0.031434,0.182453,-0.079643,0.178033,-0.084467,-0.028033,-0.290533,-0.074529,-0.312215,-0.081066,-0.312500,-0.125000,-0.312500,-0.173209,-0.294953,-0.198861,-0.250524,-0.200000,-0.237500,-0.200000,0.237500,-0.182453,0.285709,-0.138024,0.311361,-0.125000,0.312500,0.125000,0.312500,0.173209,0.294953,0.173209,0.294953,
$1*%
%AMFreePoly7*
4,1,19,0.173209,0.294953,0.198861,0.250524,0.200000,0.237500,0.200000,-0.237500,0.182453,-0.285709,0.138024,-0.311361,0.125000,-0.312500,0.081066,-0.312500,0.032857,-0.294953,0.028033,-0.290533,-0.178033,-0.084467,-0.199715,-0.037971,-0.200000,-0.031434,-0.200000,0.237500,-0.182453,0.285709,-0.138024,0.311361,-0.125000,0.312500,0.125000,0.312500,0.173209,0.294953,0.173209,0.294953,
$1*%
G04 Aperture macros list end*
%ADD10RoundRect,0.250000X-0.475000X0.337500X-0.475000X-0.337500X0.475000X-0.337500X0.475000X0.337500X0*%
%ADD11RoundRect,0.050000X-0.050000X0.375000X-0.050000X-0.375000X0.050000X-0.375000X0.050000X0.375000X0*%
%ADD12RoundRect,0.050000X-0.375000X0.050000X-0.375000X-0.050000X0.375000X-0.050000X0.375000X0.050000X0*%
%ADD13R,1.650000X1.650000*%
%ADD14RoundRect,0.200000X0.275000X-0.200000X0.275000X0.200000X-0.275000X0.200000X-0.275000X-0.200000X0*%
%ADD15RoundRect,0.100000X-0.637500X-0.100000X0.637500X-0.100000X0.637500X0.100000X-0.637500X0.100000X0*%
%ADD16R,1.700000X1.700000*%
%ADD17C,1.700000*%
%ADD18RoundRect,0.225000X-0.225000X-0.250000X0.225000X-0.250000X0.225000X0.250000X-0.225000X0.250000X0*%
%ADD19RoundRect,0.225000X0.225000X0.250000X-0.225000X0.250000X-0.225000X-0.250000X0.225000X-0.250000X0*%
%ADD20RoundRect,0.250000X-0.412500X-1.100000X0.412500X-1.100000X0.412500X1.100000X-0.412500X1.100000X0*%
%ADD21RoundRect,0.200000X-0.200000X-0.275000X0.200000X-0.275000X0.200000X0.275000X-0.200000X0.275000X0*%
%ADD22RoundRect,0.200000X0.200000X0.275000X-0.200000X0.275000X-0.200000X-0.275000X0.200000X-0.275000X0*%
%ADD23RoundRect,0.250000X0.625000X-0.350000X0.625000X0.350000X-0.625000X0.350000X-0.625000X-0.350000X0*%
%ADD24O,1.750000X1.200000*%
%ADD25RoundRect,0.150000X0.150000X-0.512500X0.150000X0.512500X-0.150000X0.512500X-0.150000X-0.512500X0*%
%ADD26RoundRect,0.218750X0.256250X-0.218750X0.256250X0.218750X-0.256250X0.218750X-0.256250X-0.218750X0*%
%ADD27RoundRect,0.102000X-0.737500X-0.150000X0.737500X-0.150000X0.737500X0.150000X-0.737500X0.150000X0*%
%ADD28RoundRect,0.102000X-0.150000X-0.737500X0.150000X-0.737500X0.150000X0.737500X-0.150000X0.737500X0*%
%ADD29RoundRect,0.218750X-0.256250X0.218750X-0.256250X-0.218750X0.256250X-0.218750X0.256250X0.218750X0*%
%ADD30FreePoly0,90.000000*%
%ADD31RoundRect,0.100000X0.100000X-0.212500X0.100000X0.212500X-0.100000X0.212500X-0.100000X-0.212500X0*%
%ADD32FreePoly1,90.000000*%
%ADD33FreePoly2,90.000000*%
%ADD34RoundRect,0.100000X0.212500X-0.100000X0.212500X0.100000X-0.212500X0.100000X-0.212500X-0.100000X0*%
%ADD35FreePoly3,90.000000*%
%ADD36FreePoly4,90.000000*%
%ADD37FreePoly5,90.000000*%
%ADD38FreePoly6,90.000000*%
%ADD39FreePoly7,90.000000*%
%ADD40RoundRect,0.225000X0.250000X-0.225000X0.250000X0.225000X-0.250000X0.225000X-0.250000X-0.225000X0*%
%ADD41RoundRect,0.155000X-0.212500X-0.155000X0.212500X-0.155000X0.212500X0.155000X-0.212500X0.155000X0*%
%ADD42RoundRect,0.250000X0.475000X-0.337500X0.475000X0.337500X-0.475000X0.337500X-0.475000X-0.337500X0*%
%ADD43RoundRect,0.225000X-0.250000X0.225000X-0.250000X-0.225000X0.250000X-0.225000X0.250000X0.225000X0*%
%ADD44RoundRect,0.218750X-0.218750X-0.256250X0.218750X-0.256250X0.218750X0.256250X-0.218750X0.256250X0*%
%ADD45RoundRect,0.200000X-0.275000X0.200000X-0.275000X-0.200000X0.275000X-0.200000X0.275000X0.200000X0*%
%ADD46R,1.400000X1.200000*%
%ADD47RoundRect,0.155000X0.212500X0.155000X-0.212500X0.155000X-0.212500X-0.155000X0.212500X-0.155000X0*%
%ADD48RoundRect,0.200000X-0.800000X0.200000X-0.800000X-0.200000X0.800000X-0.200000X0.800000X0.200000X0*%
%ADD49RoundRect,0.150000X-0.512500X-0.150000X0.512500X-0.150000X0.512500X0.150000X-0.512500X0.150000X0*%
%ADD50RoundRect,0.250000X-0.600000X-2.600000X0.600000X-2.600000X0.600000X2.600000X-0.600000X2.600000X0*%
%ADD51C,3.250000*%
%ADD52C,3.300000*%
%ADD53C,1.612000*%
%ADD54C,1.504000*%
%ADD55C,2.388400*%
%ADD56RoundRect,0.150000X0.150000X-0.825000X0.150000X0.825000X-0.150000X0.825000X-0.150000X-0.825000X0*%
%ADD57RoundRect,0.250000X0.625000X0.650000X-0.625000X0.650000X-0.625000X-0.650000X0.625000X-0.650000X0*%
%ADD58RoundRect,0.250000X0.337500X0.475000X-0.337500X0.475000X-0.337500X-0.475000X0.337500X-0.475000X0*%
%ADD59RoundRect,0.250000X-0.337500X-0.475000X0.337500X-0.475000X0.337500X0.475000X-0.337500X0.475000X0*%
%ADD60RoundRect,0.100000X-0.712500X-0.100000X0.712500X-0.100000X0.712500X0.100000X-0.712500X0.100000X0*%
%ADD61C,3.200000*%
%ADD62C,1.562000*%
%ADD63RoundRect,0.102000X0.679000X-0.679000X0.679000X0.679000X-0.679000X0.679000X-0.679000X-0.679000X0*%
%ADD64R,1.200000X0.700000*%
%ADD65R,0.800000X1.000000*%
%ADD66R,1.200000X1.000000*%
%ADD67R,2.800000X1.000000*%
%ADD68R,1.900000X1.300000*%
%ADD69RoundRect,0.075000X-0.662500X-0.075000X0.662500X-0.075000X0.662500X0.075000X-0.662500X0.075000X0*%
%ADD70RoundRect,0.075000X-0.075000X-0.662500X0.075000X-0.662500X0.075000X0.662500X-0.075000X0.662500X0*%
%ADD71C,0.650000*%
%ADD72R,1.450000X0.600000*%
%ADD73R,1.450000X0.300000*%
%ADD74O,2.100000X1.000000*%
%ADD75O,1.600000X1.000000*%
%ADD76RoundRect,0.250000X0.375000X0.625000X-0.375000X0.625000X-0.375000X-0.625000X0.375000X-0.625000X0*%
G04 APERTURE END LIST*
D10*
%TO.C,C51*%
X145100000Y-92300000D03*
X145100000Y-94375000D03*
%TD*%
D11*
%TO.C,U7*%
X156558000Y-90169500D03*
X156158000Y-90169500D03*
X155758000Y-90169500D03*
X155358000Y-90169500D03*
X154958000Y-90169500D03*
D12*
X154308000Y-90819500D03*
X154308000Y-91219500D03*
X154308000Y-91619500D03*
X154308000Y-92019500D03*
X154308000Y-92419500D03*
D11*
X154958000Y-93069500D03*
X155358000Y-93069500D03*
X155758000Y-93069500D03*
X156158000Y-93069500D03*
X156558000Y-93069500D03*
D12*
X157208000Y-92419500D03*
X157208000Y-92019500D03*
X157208000Y-91619500D03*
X157208000Y-91219500D03*
X157208000Y-90819500D03*
D13*
X155758000Y-91619500D03*
%TD*%
D14*
%TO.C,R38*%
X151825600Y-96175000D03*
X151825600Y-94525000D03*
%TD*%
D15*
%TO.C,U10*%
X131475000Y-79050000D03*
X131475000Y-79700000D03*
X131475000Y-80350000D03*
X131475000Y-81000000D03*
X131475000Y-81650000D03*
X131475000Y-82300000D03*
X131475000Y-82950000D03*
X131475000Y-83600000D03*
X131475000Y-84250000D03*
X131475000Y-84900000D03*
X137200000Y-84900000D03*
X137200000Y-84250000D03*
X137200000Y-83600000D03*
X137200000Y-82950000D03*
X137200000Y-82300000D03*
X137200000Y-81650000D03*
X137200000Y-81000000D03*
X137200000Y-80350000D03*
X137200000Y-79700000D03*
X137200000Y-79050000D03*
%TD*%
D16*
%TO.C,J3*%
X176475000Y-79900000D03*
D17*
X179015000Y-79900000D03*
X181555000Y-79900000D03*
%TD*%
D18*
%TO.C,C16*%
X140325000Y-96700000D03*
X141875000Y-96700000D03*
%TD*%
D19*
%TO.C,C14*%
X122475000Y-104050000D03*
X120925000Y-104050000D03*
%TD*%
D20*
%TO.C,C31*%
X144675000Y-105850000D03*
X147800000Y-105850000D03*
%TD*%
D21*
%TO.C,R31*%
X151775000Y-87200000D03*
X153425000Y-87200000D03*
%TD*%
D22*
%TO.C,R29*%
X122225000Y-94500000D03*
X120575000Y-94500000D03*
%TD*%
D23*
%TO.C,BT1*%
X148125000Y-78550000D03*
D24*
X148125000Y-76550000D03*
%TD*%
D22*
%TO.C,R28*%
X122250000Y-91500000D03*
X120600000Y-91500000D03*
%TD*%
D19*
%TO.C,C3*%
X183648000Y-112288000D03*
X182098000Y-112288000D03*
%TD*%
D18*
%TO.C,C11*%
X123250000Y-113125000D03*
X124800000Y-113125000D03*
%TD*%
D25*
%TO.C,U8*%
X113662500Y-106487500D03*
X114612500Y-106487500D03*
X115562500Y-106487500D03*
X115562500Y-104212500D03*
X113662500Y-104212500D03*
%TD*%
D26*
%TO.C,FB3*%
X134800000Y-101475000D03*
X134800000Y-99900000D03*
%TD*%
D18*
%TO.C,C2*%
X169550000Y-105100000D03*
X171100000Y-105100000D03*
%TD*%
D22*
%TO.C,R30*%
X122200000Y-97500000D03*
X120550000Y-97500000D03*
%TD*%
D14*
%TO.C,R9*%
X121475000Y-80600000D03*
X121475000Y-78950000D03*
%TD*%
D27*
%TO.C,U4*%
X129500000Y-89500000D03*
X129500000Y-90000000D03*
X129500000Y-90500000D03*
X129500000Y-91000000D03*
X129500000Y-91500000D03*
X129500000Y-92000000D03*
X129500000Y-92500000D03*
X129500000Y-93000000D03*
X129500000Y-93500000D03*
X129500000Y-94000000D03*
X129500000Y-94500000D03*
X129500000Y-95000000D03*
D28*
X130988000Y-96488000D03*
X131488000Y-96488000D03*
X131988000Y-96488000D03*
X132488000Y-96488000D03*
X132988000Y-96488000D03*
X133488000Y-96488000D03*
X133988000Y-96488000D03*
X134488000Y-96488000D03*
X134988000Y-96488000D03*
X135488000Y-96488000D03*
X135988000Y-96488000D03*
X136488000Y-96488000D03*
D27*
X137976000Y-95000000D03*
X137976000Y-94500000D03*
X137976000Y-94000000D03*
X137976000Y-93500000D03*
X137976000Y-93000000D03*
X137976000Y-92500000D03*
X137976000Y-92000000D03*
X137976000Y-91500000D03*
X137976000Y-91000000D03*
X137976000Y-90500000D03*
X137976000Y-90000000D03*
X137976000Y-89500000D03*
D28*
X136488000Y-88012000D03*
X135988000Y-88012000D03*
X135488000Y-88012000D03*
X134988000Y-88012000D03*
X134488000Y-88012000D03*
X133988000Y-88012000D03*
X133488000Y-88012000D03*
X132988000Y-88012000D03*
X132488000Y-88012000D03*
X131988000Y-88012000D03*
X131488000Y-88012000D03*
X130988000Y-88012000D03*
%TD*%
D18*
%TO.C,C9*%
X174325500Y-85872000D03*
X175875500Y-85872000D03*
%TD*%
D29*
%TO.C,FB2*%
X136300000Y-99900000D03*
X136300000Y-101475000D03*
%TD*%
D19*
%TO.C,C20*%
X159525000Y-88500000D03*
X157975000Y-88500000D03*
%TD*%
D21*
%TO.C,R12*%
X123200000Y-114625000D03*
X124850000Y-114625000D03*
%TD*%
D19*
%TO.C,C17*%
X122175000Y-85500000D03*
X120625000Y-85500000D03*
%TD*%
D30*
%TO.C,U3*%
X154925000Y-88812500D03*
D31*
X155425000Y-88812500D03*
X155925000Y-88812500D03*
D32*
X156425000Y-88812500D03*
D33*
X156587500Y-88150000D03*
D34*
X156587500Y-87650000D03*
D35*
X156587500Y-87150000D03*
D36*
X156425000Y-86487500D03*
D31*
X155925000Y-86487500D03*
X155425000Y-86487500D03*
D37*
X154925000Y-86487500D03*
D38*
X154762500Y-87150000D03*
D34*
X154762500Y-87650000D03*
D39*
X154762500Y-88150000D03*
%TD*%
D40*
%TO.C,C1*%
X168025000Y-106650000D03*
X168025000Y-105100000D03*
%TD*%
D18*
%TO.C,C36*%
X140350000Y-95200000D03*
X141900000Y-95200000D03*
%TD*%
D19*
%TO.C,C47*%
X152175000Y-104900000D03*
X150625000Y-104900000D03*
%TD*%
D21*
%TO.C,R6*%
X151775000Y-85750000D03*
X153425000Y-85750000D03*
%TD*%
D22*
%TO.C,R27*%
X122250000Y-88500000D03*
X120600000Y-88500000D03*
%TD*%
D19*
%TO.C,C19*%
X122150000Y-100500000D03*
X120600000Y-100500000D03*
%TD*%
D10*
%TO.C,C38*%
X119025000Y-107250000D03*
X119025000Y-109325000D03*
%TD*%
D22*
%TO.C,R20*%
X122225000Y-82300000D03*
X120575000Y-82300000D03*
%TD*%
D21*
%TO.C,R25*%
X120550000Y-99000000D03*
X122200000Y-99000000D03*
%TD*%
D41*
%TO.C,C45*%
X153032500Y-77300000D03*
X154167500Y-77300000D03*
%TD*%
D22*
%TO.C,R15*%
X161650000Y-82875000D03*
X160000000Y-82875000D03*
%TD*%
D42*
%TO.C,C13*%
X111775000Y-106275000D03*
X111775000Y-104200000D03*
%TD*%
D41*
%TO.C,C30*%
X126765000Y-101600000D03*
X127900000Y-101600000D03*
%TD*%
D43*
%TO.C,C27*%
X139300000Y-99900000D03*
X139300000Y-101450000D03*
%TD*%
D16*
%TO.C,J2*%
X126965000Y-72200000D03*
D17*
X124425000Y-72200000D03*
X121885000Y-72200000D03*
%TD*%
D44*
%TO.C,FB1*%
X174313000Y-88920000D03*
X175888000Y-88920000D03*
%TD*%
D22*
%TO.C,R10*%
X110292000Y-66822000D03*
X108642000Y-66822000D03*
%TD*%
D45*
%TO.C,R4*%
X111525000Y-107875000D03*
X111525000Y-109525000D03*
%TD*%
D43*
%TO.C,C37*%
X117225000Y-107100000D03*
X117225000Y-108650000D03*
%TD*%
D18*
%TO.C,C29*%
X140300000Y-92000000D03*
X141850000Y-92000000D03*
%TD*%
D46*
%TO.C,Y2*%
X127800000Y-100150000D03*
X130000000Y-100150000D03*
X130000000Y-98450000D03*
X127800000Y-98450000D03*
%TD*%
D21*
%TO.C,R32*%
X151775000Y-88700000D03*
X153425000Y-88700000D03*
%TD*%
D47*
%TO.C,C28*%
X130467500Y-101600000D03*
X129332500Y-101600000D03*
%TD*%
D14*
%TO.C,R40*%
X154924400Y-96175000D03*
X154924400Y-94525000D03*
%TD*%
D16*
%TO.C,J6*%
X176485000Y-76250000D03*
D17*
X179025000Y-76250000D03*
X181565000Y-76250000D03*
%TD*%
D48*
%TO.C,SW1*%
X161550000Y-98700000D03*
X161550000Y-102900000D03*
%TD*%
D43*
%TO.C,C40*%
X156885000Y-94575000D03*
X156885000Y-96125000D03*
%TD*%
D21*
%TO.C,R1*%
X169500000Y-106624000D03*
X171150000Y-106624000D03*
%TD*%
D18*
%TO.C,C15*%
X140300000Y-89500000D03*
X141850000Y-89500000D03*
%TD*%
D21*
%TO.C,R35*%
X120575000Y-87000000D03*
X122225000Y-87000000D03*
%TD*%
D49*
%TO.C,U5*%
X149725000Y-106450000D03*
X149725000Y-107400000D03*
X149725000Y-108350000D03*
X152000000Y-108350000D03*
X152000000Y-107400000D03*
X152000000Y-106450000D03*
%TD*%
D45*
%TO.C,R7*%
X117225000Y-103975000D03*
X117225000Y-105625000D03*
%TD*%
D50*
%TO.C,L2*%
X154100000Y-107500000D03*
X158600000Y-107500000D03*
%TD*%
D19*
%TO.C,C22*%
X127250000Y-93200000D03*
X125700000Y-93200000D03*
%TD*%
D43*
%TO.C,C34*%
X133300000Y-99900000D03*
X133300000Y-101450000D03*
%TD*%
D19*
%TO.C,C24*%
X136175000Y-104600000D03*
X134625000Y-104600000D03*
%TD*%
D20*
%TO.C,C49*%
X160731750Y-109168250D03*
X163856750Y-109168250D03*
%TD*%
D51*
%TO.C,J1*%
X108440000Y-87085790D03*
D52*
X108498959Y-87110000D03*
D51*
X108440000Y-98515790D03*
D52*
X108498959Y-98540000D03*
D53*
X105120370Y-99151260D03*
X103600870Y-96609410D03*
X105120870Y-89039410D03*
X103600370Y-86501260D03*
D54*
X114848960Y-88380000D03*
X117388960Y-89650000D03*
X114848960Y-90920000D03*
X117388960Y-92189999D03*
X114848960Y-93459999D03*
X117388960Y-94730000D03*
X114848960Y-96000000D03*
X117388960Y-97270000D03*
D55*
X111548960Y-84950000D03*
X111548960Y-100700000D03*
%TD*%
D22*
%TO.C,R14*%
X161625000Y-81325000D03*
X159975000Y-81325000D03*
%TD*%
D20*
%TO.C,C48*%
X160731750Y-105868250D03*
X163856750Y-105868250D03*
%TD*%
D18*
%TO.C,C4*%
X176002000Y-112288000D03*
X177552000Y-112288000D03*
%TD*%
D19*
%TO.C,C6*%
X171062000Y-95270000D03*
X169512000Y-95270000D03*
%TD*%
D56*
%TO.C,U2*%
X120980000Y-111025000D03*
X122250000Y-111025000D03*
X123520000Y-111025000D03*
X124790000Y-111025000D03*
X126060000Y-111025000D03*
X127330000Y-111025000D03*
X128600000Y-111025000D03*
X129870000Y-111025000D03*
X129870000Y-106075000D03*
X128600000Y-106075000D03*
X127330000Y-106075000D03*
X126060000Y-106075000D03*
X124790000Y-106075000D03*
X123520000Y-106075000D03*
X122250000Y-106075000D03*
X120980000Y-106075000D03*
%TD*%
D45*
%TO.C,R8*%
X118775000Y-103975000D03*
X118775000Y-105625000D03*
%TD*%
D21*
%TO.C,R23*%
X120550000Y-96000000D03*
X122200000Y-96000000D03*
%TD*%
D50*
%TO.C,L1*%
X138050000Y-107500000D03*
X142550000Y-107500000D03*
%TD*%
D43*
%TO.C,C21*%
X137800000Y-99925000D03*
X137800000Y-101475000D03*
%TD*%
D16*
%TO.C,J4*%
X176475000Y-83525000D03*
D17*
X179015000Y-83525000D03*
X181555000Y-83525000D03*
%TD*%
D57*
%TO.C,Y3*%
X156850000Y-79100000D03*
X153600000Y-79100000D03*
%TD*%
D45*
%TO.C,R13*%
X126075000Y-74675000D03*
X126075000Y-76325000D03*
%TD*%
D14*
%TO.C,R5*%
X111499000Y-114383000D03*
X111499000Y-112733000D03*
%TD*%
D58*
%TO.C,C10*%
X126175000Y-103800000D03*
X124100000Y-103800000D03*
%TD*%
D19*
%TO.C,C32*%
X127700000Y-87100000D03*
X126150000Y-87100000D03*
%TD*%
D18*
%TO.C,C50*%
X120650000Y-93000000D03*
X122200000Y-93000000D03*
%TD*%
D43*
%TO.C,C26*%
X131800000Y-99950000D03*
X131800000Y-101500000D03*
%TD*%
D19*
%TO.C,C7*%
X171075000Y-96794000D03*
X169525000Y-96794000D03*
%TD*%
D22*
%TO.C,R3*%
X180650000Y-112288000D03*
X179000000Y-112288000D03*
%TD*%
D43*
%TO.C,C41*%
X158425000Y-94575000D03*
X158425000Y-96125000D03*
%TD*%
D59*
%TO.C,C35*%
X149825000Y-110200000D03*
X151900000Y-110200000D03*
%TD*%
D22*
%TO.C,R18*%
X122225000Y-83900000D03*
X120575000Y-83900000D03*
%TD*%
D40*
%TO.C,C12*%
X121475000Y-76225000D03*
X121475000Y-74675000D03*
%TD*%
D49*
%TO.C,U6*%
X133650000Y-106150000D03*
X133650000Y-107100000D03*
X133650000Y-108050000D03*
X135925000Y-108050000D03*
X135925000Y-107100000D03*
X135925000Y-106150000D03*
%TD*%
D19*
%TO.C,C46*%
X136500000Y-77650000D03*
X134950000Y-77650000D03*
%TD*%
D16*
%TO.C,J5*%
X176485000Y-72650000D03*
D17*
X179025000Y-72650000D03*
X181565000Y-72650000D03*
%TD*%
D47*
%TO.C,C44*%
X157467500Y-77300000D03*
X156332500Y-77300000D03*
%TD*%
D18*
%TO.C,C43*%
X160025000Y-76665000D03*
X161575000Y-76665000D03*
%TD*%
D44*
%TO.C,FB4*%
X140312500Y-98200000D03*
X141887500Y-98200000D03*
%TD*%
D18*
%TO.C,C39*%
X131925000Y-77650000D03*
X133475000Y-77650000D03*
%TD*%
D60*
%TO.C,U9*%
X153512500Y-81200000D03*
X153512500Y-81850000D03*
X153512500Y-82500000D03*
X153512500Y-83150000D03*
X157737500Y-83150000D03*
X157737500Y-82500000D03*
X157737500Y-81850000D03*
X157737500Y-81200000D03*
%TD*%
D61*
%TO.C,A1*%
X116300000Y-114335000D03*
X198850000Y-114335000D03*
X168370000Y-109255000D03*
X168370000Y-81315000D03*
X117570000Y-66075000D03*
X192500000Y-66075000D03*
D62*
X165830000Y-66075000D03*
X163290000Y-66075000D03*
X160750000Y-66075000D03*
X158210000Y-66075000D03*
X137890000Y-114335000D03*
X155670000Y-66075000D03*
X153130000Y-66075000D03*
X140430000Y-114335000D03*
X196310000Y-66075000D03*
X198850000Y-66075000D03*
X150590000Y-66075000D03*
X148050000Y-66075000D03*
X143986000Y-66075000D03*
X141446000Y-66075000D03*
X138906000Y-66075000D03*
X136366000Y-66075000D03*
X133826000Y-66075000D03*
X131286000Y-66075000D03*
X170910000Y-66075000D03*
X173450000Y-66075000D03*
X175990000Y-66075000D03*
X178530000Y-66075000D03*
X181070000Y-66075000D03*
X183610000Y-66075000D03*
X186150000Y-66075000D03*
X188690000Y-66075000D03*
X196310000Y-68615000D03*
X198850000Y-68615000D03*
X196310000Y-71155000D03*
X198850000Y-71155000D03*
X196310000Y-73695000D03*
X198850000Y-73695000D03*
X196310000Y-76235000D03*
X198850000Y-76235000D03*
X196310000Y-78775000D03*
X198850000Y-78775000D03*
X196310000Y-81315000D03*
X198850000Y-81315000D03*
X196310000Y-83855000D03*
X198850000Y-83855000D03*
X196310000Y-86395000D03*
X198850000Y-86395000D03*
X196310000Y-88935000D03*
X198850000Y-88935000D03*
X196310000Y-91475000D03*
X198850000Y-91475000D03*
X196310000Y-94015000D03*
X198850000Y-94015000D03*
X196310000Y-96555000D03*
X198850000Y-96555000D03*
X196310000Y-99095000D03*
X198850000Y-99095000D03*
X196310000Y-101635000D03*
X198850000Y-101635000D03*
X196310000Y-104175000D03*
X198850000Y-104175000D03*
X196310000Y-106715000D03*
X198850000Y-106715000D03*
X153130000Y-114335000D03*
X155670000Y-114335000D03*
X158210000Y-114335000D03*
X160750000Y-114335000D03*
X163290000Y-114335000D03*
X165830000Y-114335000D03*
X168370000Y-114335000D03*
X170910000Y-114335000D03*
X175990000Y-114335000D03*
X178530000Y-114335000D03*
X181070000Y-114335000D03*
X183610000Y-114335000D03*
X186150000Y-114335000D03*
X188690000Y-114335000D03*
X190976000Y-114335000D03*
X193516000Y-114335000D03*
X126206000Y-66075000D03*
X142970000Y-114335000D03*
X145510000Y-114335000D03*
X128746000Y-66075000D03*
X196310000Y-109255000D03*
X198850000Y-109255000D03*
X132810000Y-114335000D03*
D63*
X130270000Y-114335000D03*
D62*
X135350000Y-114335000D03*
X121126000Y-66075000D03*
X123666000Y-66075000D03*
X148050000Y-114335000D03*
%TD*%
D14*
%TO.C,R39*%
X153375000Y-96175000D03*
X153375000Y-94525000D03*
%TD*%
D59*
%TO.C,C23*%
X133762500Y-109900000D03*
X135837500Y-109900000D03*
%TD*%
D18*
%TO.C,C8*%
X174325500Y-87396000D03*
X175875500Y-87396000D03*
%TD*%
D20*
%TO.C,C33*%
X144675000Y-109125000D03*
X147800000Y-109125000D03*
%TD*%
D21*
%TO.C,R34*%
X127875000Y-96600000D03*
X129525000Y-96600000D03*
%TD*%
%TO.C,R36*%
X120600000Y-90000000D03*
X122250000Y-90000000D03*
%TD*%
D45*
%TO.C,R2*%
X166475000Y-105050000D03*
X166475000Y-106700000D03*
%TD*%
D42*
%TO.C,C5*%
X161550000Y-97142500D03*
X161550000Y-95067500D03*
%TD*%
D64*
%TO.C,J11*%
X118700000Y-78200000D03*
X118700000Y-77100000D03*
X118700000Y-76000000D03*
X118700000Y-74900000D03*
X118700000Y-73800000D03*
X118700000Y-72700000D03*
X118700000Y-71600000D03*
X118700000Y-70500000D03*
X118700000Y-69550000D03*
D65*
X108200000Y-68600000D03*
D66*
X114400000Y-68600000D03*
D67*
X104050000Y-68600000D03*
D66*
X118700000Y-79750000D03*
D68*
X103600000Y-82100000D03*
%TD*%
D14*
%TO.C,R11*%
X119275000Y-112575000D03*
X119275000Y-110925000D03*
%TD*%
D69*
%TO.C,U1*%
X174067500Y-92445000D03*
X174067500Y-92945000D03*
X174067500Y-93445000D03*
X174067500Y-93945000D03*
X174067500Y-94445000D03*
X174067500Y-94945000D03*
X174067500Y-95445000D03*
X174067500Y-95945000D03*
X174067500Y-96445000D03*
X174067500Y-96945000D03*
X174067500Y-97445000D03*
X174067500Y-97945000D03*
X174067500Y-98445000D03*
X174067500Y-98945000D03*
X174067500Y-99445000D03*
X174067500Y-99945000D03*
X174067500Y-100445000D03*
X174067500Y-100945000D03*
X174067500Y-101445000D03*
X174067500Y-101945000D03*
X174067500Y-102445000D03*
X174067500Y-102945000D03*
X174067500Y-103445000D03*
X174067500Y-103945000D03*
X174067500Y-104445000D03*
D70*
X175730000Y-106107500D03*
X176230000Y-106107500D03*
X176730000Y-106107500D03*
X177230000Y-106107500D03*
X177730000Y-106107500D03*
X178230000Y-106107500D03*
X178730000Y-106107500D03*
X179230000Y-106107500D03*
X179730000Y-106107500D03*
X180230000Y-106107500D03*
X180730000Y-106107500D03*
X181230000Y-106107500D03*
X181730000Y-106107500D03*
X182230000Y-106107500D03*
X182730000Y-106107500D03*
X183230000Y-106107500D03*
X183730000Y-106107500D03*
X184230000Y-106107500D03*
X184730000Y-106107500D03*
X185230000Y-106107500D03*
X185730000Y-106107500D03*
X186230000Y-106107500D03*
X186730000Y-106107500D03*
X187230000Y-106107500D03*
X187730000Y-106107500D03*
D69*
X189392500Y-104445000D03*
X189392500Y-103945000D03*
X189392500Y-103445000D03*
X189392500Y-102945000D03*
X189392500Y-102445000D03*
X189392500Y-101945000D03*
X189392500Y-101445000D03*
X189392500Y-100945000D03*
X189392500Y-100445000D03*
X189392500Y-99945000D03*
X189392500Y-99445000D03*
X189392500Y-98945000D03*
X189392500Y-98445000D03*
X189392500Y-97945000D03*
X189392500Y-97445000D03*
X189392500Y-96945000D03*
X189392500Y-96445000D03*
X189392500Y-95945000D03*
X189392500Y-95445000D03*
X189392500Y-94945000D03*
X189392500Y-94445000D03*
X189392500Y-93945000D03*
X189392500Y-93445000D03*
X189392500Y-92945000D03*
X189392500Y-92445000D03*
D70*
X187730000Y-90782500D03*
X187230000Y-90782500D03*
X186730000Y-90782500D03*
X186230000Y-90782500D03*
X185730000Y-90782500D03*
X185230000Y-90782500D03*
X184730000Y-90782500D03*
X184230000Y-90782500D03*
X183730000Y-90782500D03*
X183230000Y-90782500D03*
X182730000Y-90782500D03*
X182230000Y-90782500D03*
X181730000Y-90782500D03*
X181230000Y-90782500D03*
X180730000Y-90782500D03*
X180230000Y-90782500D03*
X179730000Y-90782500D03*
X179230000Y-90782500D03*
X178730000Y-90782500D03*
X178230000Y-90782500D03*
X177730000Y-90782500D03*
X177230000Y-90782500D03*
X176730000Y-90782500D03*
X176230000Y-90782500D03*
X175730000Y-90782500D03*
%TD*%
D19*
%TO.C,C25*%
X127300000Y-91000000D03*
X125750000Y-91000000D03*
%TD*%
D45*
%TO.C,R33*%
X125400000Y-100200000D03*
X125400000Y-101850000D03*
%TD*%
D71*
%TO.C,J9*%
X107951000Y-108128000D03*
X107951000Y-113908000D03*
D72*
X109396000Y-107768000D03*
X109396000Y-108568000D03*
D73*
X109396000Y-109768000D03*
X109396000Y-110768000D03*
X109396000Y-111268000D03*
X109396000Y-112268000D03*
D72*
X109396000Y-113468000D03*
X109396000Y-114268000D03*
X109396000Y-114268000D03*
X109396000Y-113468000D03*
D73*
X109396000Y-112768000D03*
X109396000Y-111768000D03*
X109396000Y-110268000D03*
X109396000Y-109268000D03*
D72*
X109396000Y-108568000D03*
X109396000Y-107768000D03*
D74*
X108481000Y-106698000D03*
D75*
X104301000Y-106698000D03*
D74*
X108481000Y-115338000D03*
D75*
X104301000Y-115338000D03*
%TD*%
D46*
%TO.C,Y1*%
X180417000Y-108898000D03*
X178217000Y-108898000D03*
X178217000Y-110598000D03*
X180417000Y-110598000D03*
%TD*%
D76*
%TO.C,F1*%
X109725000Y-104475000D03*
X106925000Y-104475000D03*
%TD*%
D19*
%TO.C,C18*%
X159525000Y-86976000D03*
X157975000Y-86976000D03*
%TD*%
D18*
%TO.C,C42*%
X160025000Y-78225000D03*
X161575000Y-78225000D03*
%TD*%
D22*
%TO.C,R16*%
X161625000Y-79775000D03*
X159975000Y-79775000D03*
%TD*%
D16*
%TO.C,J7*%
X149525000Y-90950000D03*
D17*
X149525000Y-93490000D03*
%TD*%
M02*
