M48
; DRILL file {KiCad 9.0.2} date 2025-05-26T01:54:56-0400
; FORMAT={-:-/ absolute / metric / decimal}
; #@! TF.CreationDate,2025-05-26T01:54:56-04:00
; #@! TF.GenerationSoftware,Kicad,Pcbnew,9.0.2
; #@! TF.FileFunction,Plated,1,2,PTH
FMAT,2
METRIC
; #@! TA.AperFunction,Plated,PTH,ViaDrill
T1C0.300
; #@! TA.AperFunction,Plated,PTH,ViaDrill
T2C0.400
; #@! TA.AperFunction,Plated,PTH,ComponentDrill
T3C0.600
; #@! TA.AperFunction,Plated,PTH,ComponentDrill
T4C0.750
; #@! TA.AperFunction,Plated,PTH,ComponentDrill
T5C0.850
; #@! TA.AperFunction,Plated,PTH,ComponentDrill
T6C0.900
; #@! TA.AperFunction,Plated,PTH,ComponentDrill
T7C1.000
; #@! TA.AperFunction,Plated,PTH,ComponentDrill
T8C1.600
%
G90
G05
T1
X117.665Y-77.11
X124.6Y-77.1
X124.6Y-77.704
X124.6Y-78.304
X124.6Y-78.904
X128.825Y-77.104
X132.5Y-82.88
X132.625Y-77.7
X133.195Y-83.441
X138.931Y-69.76
X139.475Y-75.1
X140.075Y-74.491
X140.075Y-75.091
X140.65Y-80.888
X144.31Y-79.315
X148.075Y-72.156
X152.139Y-90.375
X152.625Y-87.25
X155.25Y-91.174
X155.25Y-92.191
X155.695Y-72.674
X156.266Y-91.174
X156.266Y-92.191
X157.042Y-89.167
X161.625Y-73.672
X165.9Y-107.5
X166.677Y-101.948
X167.45Y-102.475
X168.202Y-103.023
X168.649Y-85.11
X169.733Y-67.204
X169.809Y-70.316
X171.364Y-101.445
X171.416Y-92.494
X171.698Y-70.123
X171.88Y-101.945
X172.321Y-92.598
X172.396Y-102.445
X172.459Y-85.11
X172.475Y-105.55
X172.967Y-102.944
X173.375Y-105.55
X173.975Y-106.05
X174.745Y-67.838
X174.753Y-110.228
X175.091Y-107.223
X175.126Y-107.843
X175.126Y-108.478
X175.126Y-109.113
X175.18Y-105.869
X175.18Y-106.518
X175.204Y-103.906
X175.878Y-104.15
X175.983Y-105.003
X176.015Y-67.838
X176.649Y-104.971
X177.285Y-104.922
X177.793Y-103.652
X178.293Y-103.172
X178.845Y-104.32
X179.163Y-103.788
X179.326Y-104.971
X179.4Y-103.2
X179.97Y-105.0
X180.23Y-107.411
X180.827Y-104.102
X181.307Y-104.947
X181.984Y-104.922
X182.619Y-104.922
X183.254Y-104.922
X183.933Y-104.949
X184.591Y-104.975
X184.786Y-111.248
X185.225Y-77.893
X185.225Y-78.6
X186.11Y-89.46
X186.277Y-104.971
X186.28Y-107.255
X186.475Y-91.95
X186.506Y-89.01
X186.725Y-88.404
X186.818Y-107.782
X186.842Y-104.572
X187.075Y-91.95
X187.176Y-100.858
X187.191Y-101.62
X187.325Y-88.394
X187.456Y-93.487
X187.456Y-94.25
X188.28Y-106.229
X189.128Y-78.647
X189.918Y-77.993
X190.747Y-95.778
X190.747Y-96.54
X190.747Y-97.302
X190.747Y-98.064
X190.747Y-98.826
X190.935Y-95.016
X192.271Y-107.852
X192.808Y-110.47
X193.149Y-111.021
X193.721Y-111.384
X194.303Y-112.034
X195.7Y-94.975
X200.069Y-92.959
X200.907Y-96.794
X201.552Y-95.855
X202.177Y-98.826
T2
X103.117Y-107.97
X103.117Y-109.24
X103.117Y-110.51
X103.117Y-111.78
X103.117Y-113.05
X103.125Y-69.9
X103.125Y-84.15
X104.275Y-84.2
X104.325Y-69.9
X105.475Y-81.8
X105.475Y-83.05
X105.475Y-84.25
X106.525Y-68.6
X107.435Y-72.41
X107.435Y-74.95
X107.435Y-77.49
X109.975Y-72.41
X109.975Y-74.95
X109.975Y-77.49
X110.425Y-106.25
X114.625Y-105.4
X114.75Y-69.775
X117.125Y-77.7
X117.3Y-69.6
X117.4Y-79.1
X119.9Y-78.429
X120.1Y-72.2
X120.1Y-73.3
X120.125Y-111.75
X120.625Y-69.6
X121.375Y-113.65
X121.375Y-114.55
X122.225Y-109.677
X122.6Y-75.4
X122.6Y-76.35
X122.6Y-79.1
X122.886Y-107.476
X123.119Y-92.214
X123.525Y-109.7
X124.3Y-101.8
X124.613Y-93.613
X124.725Y-107.477
X124.8Y-91.0
X125.03Y-115.8
X125.7Y-88.2
X126.7Y-102.5
X126.759Y-115.808
X127.075Y-103.8
X128.325Y-76.0
X128.5Y-82.225
X128.7Y-88.7
X128.7Y-97.5
X128.8Y-87.3
X129.514Y-79.912
X130.0Y-102.5
X130.238Y-87.9
X130.728Y-91.004
X130.9Y-92.1
X131.0Y-94.0
X131.1Y-102.5
X131.401Y-89.611
X131.475Y-105.25
X132.2Y-98.7
X132.3Y-102.5
X132.651Y-85.174
X132.675Y-78.975
X132.713Y-94.001
X132.92Y-90.338
X133.3Y-102.5
X133.358Y-85.881
X133.501Y-89.35
X133.88Y-83.854
X134.525Y-80.275
X134.8Y-111.5
X134.95Y-78.6
X135.33Y-89.9
X135.331Y-91.0
X135.35Y-81.8
X135.399Y-92.997
X135.407Y-91.997
X135.5Y-94.8
X135.9Y-108.8
X137.575Y-77.65
X138.1Y-68.535
X138.151Y-69.936
X138.33Y-83.65
X139.201Y-92.0
X139.3Y-102.198
X139.33Y-83.65
X139.413Y-97.887
X139.65Y-81.75
X140.3Y-106.2
X140.3Y-109.1
X140.455Y-88.031
X140.5Y-84.875
X140.525Y-72.0
X140.648Y-81.688
X140.9Y-102.2
X141.3Y-98.2
X141.575Y-77.75
X142.5Y-98.2
X143.6Y-92.0
X143.7Y-98.2
X144.625Y-76.1
X144.9Y-98.2
X145.773Y-77.894
X145.799Y-83.2
X145.799Y-84.2
X145.799Y-85.2
X145.799Y-86.2
X145.799Y-87.2
X145.925Y-92.45
X146.175Y-111.25
X146.5Y-105.2
X146.5Y-106.7
X146.5Y-108.2
X146.5Y-109.7
X146.765Y-77.77
X146.796Y-80.529
X148.4Y-83.2
X148.4Y-84.2
X148.4Y-85.35
X148.575Y-88.925
X149.2Y-103.1
X150.05Y-100.0
X150.575Y-81.4
X150.615Y-77.49
X150.615Y-80.03
X150.7Y-103.1
X150.807Y-89.209
X150.9Y-109.1
X151.125Y-75.525
X151.375Y-82.95
X152.253Y-93.352
X152.4Y-111.5
X153.075Y-91.1
X153.409Y-93.319
X154.918Y-82.95
X155.2Y-78.3
X155.695Y-87.65
X155.775Y-106.65
X155.775Y-108.35
X155.825Y-97.225
X157.15Y-90.12
X158.275Y-85.9
X158.365Y-97.3
X159.04Y-80.724
X160.087Y-74.273
X160.095Y-94.63
X160.575Y-92.3
X160.775Y-87.65
X160.925Y-75.5
X161.5Y-99.8
X161.5Y-101.2
X161.853Y-75.5
X162.419Y-108.268
X162.419Y-109.668
X162.444Y-105.118
X162.494Y-106.343
X163.715Y-72.2
X164.651Y-73.65
X165.222Y-75.328
X165.539Y-76.328
X165.995Y-77.92
X166.744Y-107.7
X167.035Y-78.1
X167.55Y-103.775
X168.325Y-70.3
X168.525Y-77.9
X169.538Y-96.057
X169.665Y-65.552
X170.35Y-107.725
X170.932Y-77.1
X170.932Y-78.1
X171.075Y-96.019
X171.375Y-98.65
X172.384Y-97.167
X174.2Y-72.9
X174.364Y-89.809
X176.523Y-111.272
X176.939Y-109.814
X176.98Y-87.05
X176.98Y-88.0
X178.454Y-85.076
X178.493Y-86.075
X180.03Y-94.508
X181.398Y-110.65
X183.381Y-111.272
X184.814Y-89.446
X185.675Y-92.25
X188.199Y-99.454
X188.43Y-107.066
X188.715Y-69.87
X196.568Y-105.462
X199.699Y-95.155
X201.415Y-67.33
X201.415Y-69.87
X201.415Y-72.41
X201.415Y-74.95
X201.415Y-77.49
X201.415Y-80.03
X201.415Y-82.57
X201.415Y-85.11
X201.415Y-87.65
T4
X148.125Y-76.55
X148.125Y-78.55
T5
X121.126Y-66.075
X123.666Y-66.075
X126.206Y-66.075
X128.746Y-66.075
X130.27Y-114.335
X131.286Y-66.075
X132.81Y-114.335
X133.826Y-66.075
X135.35Y-114.335
X136.366Y-66.075
X137.89Y-114.335
X138.906Y-66.075
X140.43Y-114.335
X141.446Y-66.075
X142.97Y-114.335
X143.986Y-66.075
X145.51Y-114.335
X148.05Y-66.075
X148.05Y-114.335
X150.59Y-66.075
X153.13Y-66.075
X153.13Y-114.335
X155.67Y-66.075
X155.67Y-114.335
X158.21Y-66.075
X158.21Y-114.335
X160.75Y-66.075
X160.75Y-114.335
X163.29Y-66.075
X163.29Y-114.335
X165.83Y-66.075
X165.83Y-114.335
X168.37Y-114.335
X170.91Y-66.075
X170.91Y-114.335
X173.45Y-66.075
X175.99Y-66.075
X175.99Y-114.335
X178.53Y-66.075
X178.53Y-114.335
X181.07Y-66.075
X181.07Y-114.335
X183.61Y-66.075
X183.61Y-114.335
X186.15Y-66.075
X186.15Y-114.335
X188.69Y-66.075
X188.69Y-114.335
X190.976Y-114.335
X193.516Y-114.335
X196.31Y-66.075
X196.31Y-68.615
X196.31Y-71.155
X196.31Y-73.695
X196.31Y-76.235
X196.31Y-78.775
X196.31Y-81.315
X196.31Y-83.855
X196.31Y-86.395
X196.31Y-88.935
X196.31Y-91.475
X196.31Y-94.015
X196.31Y-96.555
X196.31Y-99.095
X196.31Y-101.635
X196.31Y-104.175
X196.31Y-106.715
X196.31Y-109.255
X198.85Y-66.075
X198.85Y-68.615
X198.85Y-71.155
X198.85Y-73.695
X198.85Y-76.235
X198.85Y-78.775
X198.85Y-81.315
X198.85Y-83.855
X198.85Y-86.395
X198.85Y-88.935
X198.85Y-91.475
X198.85Y-94.015
X198.85Y-96.555
X198.85Y-99.095
X198.85Y-101.635
X198.85Y-104.175
X198.85Y-106.715
X198.85Y-109.255
T6
X103.6Y-86.501
X103.601Y-96.609
X105.12Y-99.151
X105.121Y-89.039
X114.849Y-88.38
X114.849Y-90.92
X114.849Y-93.46
X114.849Y-96.0
X117.389Y-89.65
X117.389Y-92.19
X117.389Y-94.73
X117.389Y-97.27
T7
X121.885Y-72.2
X124.425Y-72.2
X126.965Y-72.2
X149.525Y-90.95
X149.525Y-93.49
X176.475Y-79.9
X176.475Y-83.525
X176.485Y-72.65
X176.485Y-76.25
X179.015Y-79.9
X179.015Y-83.525
X179.025Y-72.65
X179.025Y-76.25
X181.555Y-79.9
X181.555Y-83.525
X181.565Y-72.65
X181.565Y-76.25
T8
X111.549Y-84.95
X111.549Y-100.7
T3
G00X104.601Y-106.698
M15
G01X104.001Y-106.698
M16
G05
G00X104.601Y-115.338
M15
G01X104.001Y-115.338
M16
G05
G00X109.031Y-106.698
M15
G01X107.931Y-106.698
M16
G05
G00X109.031Y-115.338
M15
G01X107.931Y-115.338
M16
G05
M30
